<svg width="38" height="24" xmlns="http://www.w3.org/2000/svg" data-name="Layer 1">

 <g>
  <title>Layer 1</title>
  <path id="svg_1" fill="transparent" d="m35,0l-32,0a3,3 0 0 0 -3,3l0,18a3,3 0 0 0 3,3l32,0a3,3 0 0 0 3,-3l0,-18a3,3 0 0 0 -3,-3z" class="cls-1"/>
  <path id="svg_2" fill="#5b5b5b" d="m36.12,10l-1.06,-0.61l-1.06,-0.64a1.07,1.07 0 0 0 -1.6,0.93l0,0.13a0.23,0.23 0 0 0 0.1,0.19l0.5,0.28a0.2,0.2 0 0 0 0.28,-0.08a0.19,0.19 0 0 0 0,-0.1l0,-0.32a0.21,0.21 0 0 1 0.2,-0.22l0.12,0l1,0.57l1,0.56a0.22,0.22 0 0 1 0.07,0.3l-0.07,0.07l-1,0.56l-1,0.57a0.21,0.21 0 0 1 -0.29,-0.07a0.24,0.24 0 0 1 0,-0.12l0,-0.16a1.07,1.07 0 0 0 -1.6,-0.93l-1.08,0.62l-1.06,0.61a1.08,1.08 0 0 0 -0.4,1.46a1,1 0 0 0 0.4,0.4l1.06,0.61l1.08,0.61a1.07,1.07 0 0 0 1.6,-0.93l0,-0.13a0.23,0.23 0 0 0 -0.1,-0.19l-0.5,-0.29a0.2,0.2 0 0 0 -0.28,0.08a0.23,0.23 0 0 0 0,0.11l0,0.32a0.21,0.21 0 0 1 -0.2,0.22a0.27,0.27 0 0 1 -0.12,0l-1,-0.57l-1,-0.56a0.22,0.22 0 0 1 -0.11,-0.28l0.07,-0.07l1,-0.56l1,-0.57a0.21,0.21 0 0 1 0.29,0.07a0.24,0.24 0 0 1 0,0.12l0,0.16a1.07,1.07 0 0 0 1.6,0.93l1.08,-0.62l1.06,-0.61a1.06,1.06 0 0 0 0.34,-1.47a1,1 0 0 0 -0.32,-0.38z"/>
  <path id="svg_3" fill="#5b5b5b" d="m29.14,10.18l-2.49,5.14l-1,0l0.93,-1.92l-1.46,-3.22l1.06,0l0.94,2.15l1,-2.15l1.02,0z"/>
  <path id="svg_4" fill="#5b5b5b" d="m4.25,12a1,1 0 1 0 -1,1.05l0,0a1,1 0 0 0 1,-1l0,-0.05m0,1.83l0,-0.48a1.49,1.49 0 0 1 -1.16,0.54a1.79,1.79 0 0 1 -1.75,-1.83l0,-0.06a1.82,1.82 0 0 1 1.75,-1.89l0,0a1.47,1.47 0 0 1 1.14,0.53l0,-0.46l0.89,0l0,3.65l-0.87,0z"/>
  <path id="svg_5" fill="#5b5b5b" d="m9.52,13c-0.32,0 -0.4,-0.12 -0.4,-0.42l0,-1.58l0.57,0l0,-0.79l-0.57,0l0,-0.92l-0.92,0l0,0.89l-1.2,0l0,-0.37c0,-0.3 0.12,-0.42 0.44,-0.42l0.2,0l0,-0.71l-0.43,0c-0.76,0 -1.12,0.25 -1.12,1l0,0.49l-0.51,0l0,0.83l0.51,0l0,2.86l0.91,0l0,-2.86l1.2,0l0,1.79c0,0.75 0.28,1.07 1,1.07l0.5,0l0,-0.86l-0.18,0z"/>
  <path id="svg_6" fill="#5b5b5b" d="m12.82,11.67a0.87,0.87 0 0 0 -0.91,-0.75a0.89,0.89 0 0 0 -0.92,0.75l1.83,0zm-1.82,0.57a0.91,0.91 0 0 0 0.94,0.85a1,1 0 0 0 0.86,-0.47l0.94,0a1.79,1.79 0 0 1 -1.82,1.27a1.8,1.8 0 0 1 -1.92,-1.67l0,-0.22a1.89,1.89 0 1 1 3.78,0l0,0a0.89,0.89 0 0 1 0,0.23l-2.78,0.01z"/>
  <path id="svg_7" fill="#5b5b5b" d="m19.66,12a1,1 0 1 0 0,0.05l0,-0.05m-2.89,3.32l0,-5.14l0.89,0l0,0.47a1.49,1.49 0 0 1 1.16,-0.54a1.79,1.79 0 0 1 1.76,1.82l0,0.07a1.82,1.82 0 0 1 -1.75,1.89l0,0a1.44,1.44 0 0 1 -1.11,-0.49l0,1.92l-0.95,0z"/>
  <path id="svg_8" fill="#5b5b5b" d="m23.82,12a1,1 0 1 0 -1.05,1.05l0.05,0a1,1 0 0 0 1,-1l0,-0.05m0,1.83l0,-0.48a1.46,1.46 0 0 1 -1.15,0.54a1.79,1.79 0 0 1 -1.76,-1.82l0,-0.07a1.82,1.82 0 0 1 1.75,-1.89l0,0a1.45,1.45 0 0 1 1.13,0.53l0,-0.46l0.9,0l0,3.65l-0.87,0z"/>
  <path id="svg_9" fill="#5b5b5b" d="m15.15,10.54a0.91,0.91 0 0 1 0.79,-0.43a0.88,0.88 0 0 1 0.39,0.08l0,0.94a1.15,1.15 0 0 0 -0.65,-0.17a0.64,0.64 0 0 0 -0.5,0.71l0,2.16l-0.93,0l0,-3.65l0.9,0l0,0.36z"/>
 </g>
</svg>